<?xml version="1.0" encoding="UTF-8" standalone="no"?>
<!DOCTYPE svg PUBLIC "-//W3C//DTD SVG 1.1//EN" "http://www.w3.org/Graphics/SVG/1.1/DTD/svg11.dtd">
<!-- 由 Microsoft Visio, SVG Export 生成 trie.svg Page-1 -->
<svg xmlns="http://www.w3.org/2000/svg" xmlns:xlink="http://www.w3.org/1999/xlink" xmlns:ev="http://www.w3.org/2001/xml-events"
		xmlns:v="http://schemas.microsoft.com/visio/2003/SVGExtensions/" width="8.57459in" height="6.50393in"
		viewBox="0 0 617.37 468.283" xml:space="preserve" color-interpolation-filters="sRGB" class="st6">
	<v:documentProperties v:langID="2052" v:metric="true" v:viewMarkup="false">
		<v:userDefs>
			<v:ud v:nameU="msvSubprocessMaster" v:prompt="" v:val="VT4(Rectangle)"/>
			<v:ud v:nameU="msvNoAutoConnect" v:val="VT0(1):26"/>
		</v:userDefs>
	</v:documentProperties>

	<style type="text/css">
	<![CDATA[
		.st1 {fill:none;stroke:#000000;stroke-width:2}
		.st2 {marker-end:url(#mrkr4-16);stroke:#4672c4;stroke-linecap:round;stroke-linejoin:round;stroke-width:2}
		.st3 {fill:#4672c4;fill-opacity:1;stroke:#4672c4;stroke-opacity:1;stroke-width:0.44247787610619}
		.st4 {fill:#ffffff;stroke:none;stroke-linecap:butt;stroke-width:7.2}
		.st5 {fill:#3c63ac;font-family:Calibri;font-size:2.66666em}
		.st6 {fill:none;fill-rule:evenodd;font-size:12px;overflow:visible;stroke-linecap:square;stroke-miterlimit:3}
	]]>
	</style>

	<defs id="Markers">
		<g id="lend4">
			<path d="M 2 1 L 0 0 L 2 -1 L 2 1 " style="stroke:none"/>
		</g>
		<marker id="mrkr4-16" class="st3" v:arrowType="4" v:arrowSize="2" v:setback="4.52" refX="-4.52" orient="auto"
				markerUnits="strokeWidth" overflow="visible">
			<use xlink:href="#lend4" transform="scale(-2.26,-2.26) "/>
		</marker>
	</defs>
	<g v:mID="0" v:index="1" v:groupContext="foregroundPage">
		<v:userDefs>
			<v:ud v:nameU="msvThemeOrder" v:val="VT0(0):26"/>
		</v:userDefs>
		<title>页-1</title>
		<v:pageProperties v:drawingScale="0.0393701" v:pageScale="0.0393701" v:drawingUnits="24" v:shadowOffsetX="8.50394"
				v:shadowOffsetY="-8.50394"/>
		<v:layer v:name="连接线" v:index="0"/>
		<g id="shape1-1" v:mID="1" v:groupContext="shape" transform="translate(303.585,-414.871)">
			<title>圆形</title>
			<v:userDefs>
				<v:ud v:nameU="visVersion" v:val="VT0(15):26"/>
			</v:userDefs>
			<path d="M0 451.58 A16.706 16.706 0 0 1 33.41 451.58 A16.706 16.706 0 1 1 -0 451.58 Z" class="st1"/>
		</g>
		<g id="shape2-3" v:mID="2" v:groupContext="shape" transform="translate(128.172,-331.341)">
			<title>圆形.2</title>
			<v:userDefs>
				<v:ud v:nameU="visVersion" v:val="VT0(15):26"/>
			</v:userDefs>
			<path d="M0 451.58 A16.706 16.706 0 0 1 33.41 451.58 A16.706 16.706 0 1 1 -0 451.58 Z" class="st1"/>
		</g>
		<g id="shape3-5" v:mID="3" v:groupContext="shape" transform="translate(245.114,-331.341)">
			<title>圆形.3</title>
			<v:userDefs>
				<v:ud v:nameU="visVersion" v:val="VT0(15):26"/>
			</v:userDefs>
			<path d="M0 451.58 A16.706 16.706 0 0 1 33.41 451.58 A16.706 16.706 0 1 1 -0 451.58 Z" class="st1"/>
		</g>
		<g id="shape4-7" v:mID="4" v:groupContext="shape" transform="translate(362.056,-331.341)">
			<title>圆形.4</title>
			<v:userDefs>
				<v:ud v:nameU="visVersion" v:val="VT0(15):26"/>
			</v:userDefs>
			<path d="M0 451.58 A16.706 16.706 0 0 1 33.41 451.58 A16.706 16.706 0 1 1 -0 451.58 Z" class="st1"/>
		</g>
		<g id="shape5-9" v:mID="5" v:groupContext="shape" transform="translate(478.998,-331.341)">
			<title>圆形.5</title>
			<v:userDefs>
				<v:ud v:nameU="visVersion" v:val="VT0(15):26"/>
			</v:userDefs>
			<path d="M0 451.58 A16.706 16.706 0 0 1 33.41 451.58 A16.706 16.706 0 1 1 -0 451.58 Z" class="st1"/>
		</g>
		<g id="shape6-11" v:mID="6" v:groupContext="shape" v:layerMember="0" transform="translate(303.585,-431.577)">
			<title>动态连接线</title>
			<desc>a</desc>
			<v:textBlock v:margins="rect(4,4,4,4)" v:tabSpace="42.5197"/>
			<v:textRect cx="-73.4461" cy="504.141" width="160" height="46.4035"/>
			<path d="M0 468.28 L-138.77 536.03" class="st2"/>
			<rect v:rectContext="textBkgnd" x="-81.1102" y="484.941" width="15.3281" height="38.3997" class="st4"/>
			<text x="-81.11" y="513.74" class="st5" v:langID="2052"><v:paragraph v:horizAlign="1"/><v:tabList/>a</text>		</g>
		<g id="shape7-19" v:mID="7" v:groupContext="shape" v:layerMember="0" transform="translate(308.476,-419.763)">
			<title>动态连接线.7</title>
			<desc>b</desc>
			<v:textBlock v:margins="rect(4,4,4,4)" v:tabSpace="42.5197"/>
			<v:textRect cx="-23.3282" cy="495.788" width="160" height="46.4035"/>
			<path d="M0 468.28 L-40.81 516.4" class="st2"/>
			<rect v:rectContext="textBkgnd" x="-31.7344" y="476.588" width="16.8124" height="38.3997" class="st4"/>
			<text x="-31.73" y="505.39" class="st5" v:langID="2052"><v:paragraph v:horizAlign="1"/><v:tabList/>b</text>		</g>
		<g id="shape8-26" v:mID="8" v:groupContext="shape" v:layerMember="0" transform="translate(332.105,-419.763)">
			<title>动态连接线.8</title>
			<desc>e</desc>
			<v:textBlock v:margins="rect(4,4,4,4)" v:tabSpace="42.5197"/>
			<v:textRect cx="23.3282" cy="495.788" width="160" height="46.4035"/>
			<path d="M0 468.28 L40.81 516.4" class="st2"/>
			<rect v:rectContext="textBkgnd" x="15.3672" y="476.588" width="15.9219" height="38.3997" class="st4"/>
			<text x="15.37" y="505.39" class="st5" v:langID="2052"><v:paragraph v:horizAlign="1"/><v:tabList/>e</text>		</g>
		<g id="shape9-33" v:mID="9" v:groupContext="shape" v:layerMember="0" transform="translate(336.997,-431.577)">
			<title>动态连接线.9</title>
			<desc>h</desc>
			<v:textBlock v:margins="rect(4,4,4,4)" v:tabSpace="42.5197"/>
			<v:textRect cx="79.3533" cy="501.695" width="160" height="46.4035"/>
			<path d="M0 468.28 L150.38 531.6" class="st2"/>
			<rect v:rectContext="textBkgnd" x="70.9471" y="482.495" width="16.8124" height="38.3997" class="st4"/>
			<text x="70.95" y="511.3" class="st5" v:langID="2052"><v:paragraph v:horizAlign="1"/><v:tabList/>h</text>		</g>
		<g id="shape10-40" v:mID="10" v:groupContext="shape" transform="translate(108.682,-235.735)">
			<title>圆形.10</title>
			<v:userDefs>
				<v:ud v:nameU="visVersion" v:val="VT0(15):26"/>
			</v:userDefs>
			<path d="M0 451.58 A16.706 16.706 0 0 1 33.41 451.58 A16.706 16.706 0 1 1 -0 451.58 Z" class="st1"/>
		</g>
		<g id="shape11-42" v:mID="11" v:groupContext="shape" transform="translate(245.114,-235.735)">
			<title>圆形.11</title>
			<v:userDefs>
				<v:ud v:nameU="visVersion" v:val="VT0(15):26"/>
			</v:userDefs>
			<path d="M0 451.58 A16.706 16.706 0 0 1 33.41 451.58 A16.706 16.706 0 1 1 -0 451.58 Z" class="st1"/>
		</g>
		<g id="shape12-44" v:mID="12" v:groupContext="shape" transform="translate(362.056,-235.735)">
			<title>圆形.12</title>
			<v:userDefs>
				<v:ud v:nameU="visVersion" v:val="VT0(15):26"/>
			</v:userDefs>
			<path d="M0 451.58 A16.706 16.706 0 0 1 33.41 451.58 A16.706 16.706 0 1 1 -0 451.58 Z" class="st1"/>
		</g>
		<g id="shape13-46" v:mID="13" v:groupContext="shape" transform="translate(498.488,-235.735)">
			<title>圆形.13</title>
			<v:userDefs>
				<v:ud v:nameU="visVersion" v:val="VT0(15):26"/>
			</v:userDefs>
			<path d="M0 451.58 A16.706 16.706 0 0 1 33.41 451.58 A16.706 16.706 0 1 1 -0 451.58 Z" class="st1"/>
		</g>
		<g id="shape14-48" v:mID="14" v:groupContext="shape" v:layerMember="0" transform="translate(144.878,-331.341)">
			<title>动态连接线.14</title>
			<desc>b</desc>
			<v:textBlock v:margins="rect(4,4,4,4)" v:tabSpace="42.5197"/>
			<v:textRect cx="-9.74514" cy="499.38" width="160" height="46.4035"/>
			<path d="M0 468.28 L-16.79 521.85" class="st2"/>
			<rect v:rectContext="textBkgnd" x="-18.1514" y="480.181" width="16.8124" height="38.3997" class="st4"/>
			<text x="-18.15" y="508.98" class="st5" v:langID="2052"><v:paragraph v:horizAlign="1"/><v:tabList/>b</text>		</g>
		<g id="shape15-55" v:mID="15" v:groupContext="shape" v:layerMember="0" transform="translate(268.907,-331.341)">
			<title>动态连接线.15</title>
			<desc>c</desc>
			<v:textBlock v:margins="rect(4,4,4,4)" v:tabSpace="42.5197"/>
			<v:textRect cx="-7.08661" cy="499.38" width="160" height="46.4035"/>
			<path d="M-7.09 468.28 L-7.09 521.44" class="st2"/>
			<rect v:rectContext="textBkgnd" x="-13.8523" y="480.181" width="13.5313" height="38.3997" class="st4"/>
			<text x="-13.85" y="508.98" class="st5" v:langID="2052"><v:paragraph v:horizAlign="1"/><v:tabList/>c</text>		</g>
		<g id="shape16-62" v:mID="16" v:groupContext="shape" v:layerMember="0" transform="translate(385.848,-331.341)">
			<title>动态连接线.16</title>
			<desc>f</desc>
			<v:textBlock v:margins="rect(4,4,4,4)" v:tabSpace="42.5197"/>
			<v:textRect cx="-7.08661" cy="499.38" width="160" height="46.4035"/>
			<path d="M-7.09 468.28 L-7.09 521.44" class="st2"/>
			<rect v:rectContext="textBkgnd" x="-11.9692" y="480.181" width="9.76547" height="38.3997" class="st4"/>
			<text x="-11.97" y="508.98" class="st5" v:langID="2052"><v:paragraph v:horizAlign="1"/><v:tabList/>f</text>		</g>
		<g id="shape17-69" v:mID="17" v:groupContext="shape" v:layerMember="0" transform="translate(495.703,-331.341)">
			<title>动态连接线.17</title>
			<desc>l</desc>
			<v:textBlock v:margins="rect(4,4,4,4)" v:tabSpace="42.5197"/>
			<v:textRect cx="9.74514" cy="499.38" width="160" height="46.4035"/>
			<path d="M0 468.28 L16.79 521.85" class="st2"/>
			<rect v:rectContext="textBkgnd" x="6.07321" y="480.181" width="7.34381" height="38.3997" class="st4"/>
			<text x="6.07" y="508.98" class="st5" v:langID="2052"><v:paragraph v:horizAlign="1"/><v:tabList/>l</text>		</g>
		<g id="shape18-76" v:mID="18" v:groupContext="shape" transform="translate(89.1918,-122.651)">
			<title>圆形.18</title>
			<v:userDefs>
				<v:ud v:nameU="visVersion" v:val="VT0(15):26"/>
			</v:userDefs>
			<path d="M0 451.58 A16.706 16.706 0 0 1 33.41 451.58 A16.706 16.706 0 1 1 -0 451.58 Z" class="st1"/>
		</g>
		<g id="shape19-78" v:mID="19" v:groupContext="shape" transform="translate(253.467,-122.651)">
			<title>圆形.19</title>
			<v:userDefs>
				<v:ud v:nameU="visVersion" v:val="VT0(15):26"/>
			</v:userDefs>
			<path d="M0 451.58 A16.706 16.706 0 0 1 33.41 451.58 A16.706 16.706 0 1 1 -0 451.58 Z" class="st1"/>
		</g>
		<g id="shape20-80" v:mID="20" v:groupContext="shape" transform="translate(370.409,-122.651)">
			<title>圆形.20</title>
			<v:userDefs>
				<v:ud v:nameU="visVersion" v:val="VT0(15):26"/>
			</v:userDefs>
			<path d="M0 451.58 A16.706 16.706 0 0 1 33.41 451.58 A16.706 16.706 0 1 1 -0 451.58 Z" class="st1"/>
		</g>
		<g id="shape21-82" v:mID="21" v:groupContext="shape" transform="translate(506.841,-122.651)">
			<title>圆形.21</title>
			<v:userDefs>
				<v:ud v:nameU="visVersion" v:val="VT0(15):26"/>
			</v:userDefs>
			<path d="M0 451.58 A16.706 16.706 0 0 1 33.41 451.58 A16.706 16.706 0 1 1 -0 451.58 Z" class="st1"/>
		</g>
		<g id="shape22-84" v:mID="22" v:groupContext="shape" transform="translate(136.525,-122.651)">
			<title>圆形.22</title>
			<v:userDefs>
				<v:ud v:nameU="visVersion" v:val="VT0(15):26"/>
			</v:userDefs>
			<path d="M0 451.58 A16.706 16.706 0 0 1 33.41 451.58 A16.706 16.706 0 1 1 -0 451.58 Z" class="st1"/>
		</g>
		<g id="shape23-86" v:mID="23" v:groupContext="shape" v:layerMember="0" transform="translate(125.388,-235.735)">
			<title>动态连接线.23</title>
			<desc>c</desc>
			<v:textBlock v:margins="rect(4,4,4,4)" v:tabSpace="42.5197"/>
			<v:textRect cx="-9.74514" cy="508.119" width="160" height="46.4035"/>
			<path d="M0 468.28 L-17.34 539.17" class="st2"/>
			<rect v:rectContext="textBkgnd" x="-16.5108" y="488.919" width="13.5313" height="38.3997" class="st4"/>
			<text x="-16.51" y="517.72" class="st5" v:langID="2052"><v:paragraph v:horizAlign="1"/><v:tabList/>c</text>		</g>
		<g id="shape24-93" v:mID="24" v:groupContext="shape" v:layerMember="0" transform="translate(125.388,-235.735)">
			<title>动态连接线.24</title>
			<desc>d</desc>
			<v:textBlock v:margins="rect(4,4,4,4)" v:tabSpace="42.5197"/>
			<v:textRect cx="13.9216" cy="508.119" width="160" height="46.4035"/>
			<path d="M0 468.28 L24.86 539.42" class="st2"/>
			<rect v:rectContext="textBkgnd" x="5.51541" y="488.919" width="16.8124" height="38.3997" class="st4"/>
			<text x="5.52" y="517.72" class="st5" v:langID="2052"><v:paragraph v:horizAlign="1"/><v:tabList/>d</text>		</g>
		<g id="shape25-100" v:mID="25" v:groupContext="shape" v:layerMember="0" transform="translate(258.91,-235.735)">
			<title>动态连接线.25</title>
			<desc>d</desc>
			<v:textBlock v:margins="rect(4,4,4,4)" v:tabSpace="42.5197"/>
			<v:textRect cx="7.08661" cy="508.119" width="160" height="46.4035"/>
			<path d="M2.91 468.28 L10.32 538.96" class="st2"/>
			<rect v:rectContext="textBkgnd" x="-1.31961" y="488.919" width="16.8124" height="38.3997" class="st4"/>
			<text x="-1.32" y="517.72" class="st5" v:langID="2052"><v:paragraph v:horizAlign="1"/><v:tabList/>d</text>		</g>
		<g id="shape26-107" v:mID="26" v:groupContext="shape" v:layerMember="0" transform="translate(375.852,-235.735)">
			<title>动态连接线.26</title>
			<desc>g</desc>
			<v:textBlock v:margins="rect(4,4,4,4)" v:tabSpace="42.5197"/>
			<v:textRect cx="7.08661" cy="508.119" width="160" height="46.4035"/>
			<path d="M2.91 468.28 L10.32 538.96" class="st2"/>
			<rect v:rectContext="textBkgnd" x="-0.444544" y="488.919" width="15.0625" height="38.3997" class="st4"/>
			<text x="-0.44" y="517.72" class="st5" v:langID="2052"><v:paragraph v:horizAlign="1"/><v:tabList/>g</text>		</g>
		<g id="shape27-114" v:mID="27" v:groupContext="shape" v:layerMember="0" transform="translate(512.284,-235.735)">
			<title>动态连接线.27</title>
			<desc>n</desc>
			<v:textBlock v:margins="rect(4,4,4,4)" v:tabSpace="42.5197"/>
			<v:textRect cx="7.08661" cy="508.119" width="160" height="46.4035"/>
			<path d="M2.91 468.28 L10.32 538.96" class="st2"/>
			<rect v:rectContext="textBkgnd" x="-1.31961" y="488.919" width="16.8124" height="38.3997" class="st4"/>
			<text x="-1.32" y="517.72" class="st5" v:langID="2052"><v:paragraph v:horizAlign="1"/><v:tabList/>n</text>		</g>
		<g id="shape28-121" v:mID="28" v:groupContext="shape" transform="translate(69.7016,-20)">
			<title>圆形.28</title>
			<v:userDefs>
				<v:ud v:nameU="visVersion" v:val="VT0(15):26"/>
			</v:userDefs>
			<path d="M0 451.58 A16.706 16.706 0 0 1 33.41 451.58 A16.706 16.706 0 1 1 -0 451.58 Z" class="st1"/>
		</g>
		<g id="shape29-123" v:mID="29" v:groupContext="shape" v:layerMember="0" transform="translate(105.898,-122.651)">
			<title>动态连接线.29</title>
			<desc>d</desc>
			<v:textBlock v:margins="rect(4,4,4,4)" v:tabSpace="42.5197"/>
			<v:textRect cx="-7.89779" cy="503.109" width="160" height="46.4035"/>
			<path d="M0 468.28 L-13.8 529.12" class="st2"/>
			<rect v:rectContext="textBkgnd" x="-16.304" y="483.91" width="16.8124" height="38.3997" class="st4"/>
			<text x="-16.3" y="512.71" class="st5" v:langID="2052"><v:paragraph v:horizAlign="1"/><v:tabList/>d</text>		</g>
	</g>
</svg>
